<svg fill="#ffffff" width="20px" height="20px" viewBox="-6.5 0 32 32" version="1.1" xmlns="http://www.w3.org/2000/svg">
<title>dollar</title>
<path d="M11.063 4.125v8c2.031 1.469 3.344 2.781 4.094 3.906 0.75 1.156 1.094 2.281 1.125 3.438 0.063 1.875-1.375 5.469-5.219 6.094v3.719h-2.219v-3.656c-3.438-0.438-5.125-3.219-6-4.813l1.969-1.156c1.188 2.219 2.531 3.406 4.031 3.719v-9.969c-1.75-1.344-2.906-2.344-3.344-2.938-0.813-1.094-1.219-2.281-1.219-3.531 0-2.031 1.281-4.844 4.563-5.313v-2.125h2.219v2.156c2.469 0.469 3.906 2.406 4.844 3.656l-1.875 1.406c-0.688-0.906-1.594-2.125-2.969-2.594zM8.844 10.438v-6.406c-1.688 0.438-2.188 1.969-2.188 2.813 0 1.438 0.906 2.438 1.469 2.969 0.094 0.125 0.375 0.344 0.719 0.625zM11.063 15.188v8.031c2.031-0.688 2.75-2.594 2.719-3.688 0-0.781-0.25-1.5-0.75-2.25-0.438-0.594-1.094-1.313-1.969-2.094z"></path>
</svg>